<svg xmlns="http://www.w3.org/2000/svg" width="150" height="150" viewBox="0 0 150 150" role="img" aria-label="ITIL 4 FOUNDATION">
  <defs><linearGradient id="bg" x1="0" y1="0" x2="1" y2="1"><stop offset="0" stop-color="#7B42BC"/><stop offset="0.58" stop-color="#172033"/><stop offset="1" stop-color="#0d1117"/></linearGradient><filter id="shadow" x="-20%" y="-20%" width="140%" height="140%"><feDropShadow dx="0" dy="4" stdDeviation="3" flood-color="#000" flood-opacity="0.45"/></filter></defs>
  <path filter="url(#shadow)" d="M75 7 L126 27 L121 91 C118 116 98 134 75 144 C52 134 32 116 29 91 L24 27 Z" fill="url(#bg)" stroke="#c9d1d9" stroke-width="3"/>
  <path d="M75 18 L112 32 L108 86 C105 105 92 120 75 129 C58 120 45 105 42 86 L38 32 Z" fill="#161b22" opacity="0.48"/>
  <circle cx="75" cy="36" r="18" fill="#7B42BC" stroke="#f0f6fc" stroke-width="2"/><text x="75" y="41" text-anchor="middle" fill="#ffffff" font-family="Arial, Helvetica, sans-serif" font-size="12" font-weight="900">ITIL</text>
  <text x="75" y="64" text-anchor="middle" fill="#c9d1d9" font-family="Arial, Helvetica, sans-serif" font-size="8" font-weight="800" letter-spacing="1">PEOPLECERT</text>
  <text x="75" y="84" text-anchor="middle" fill="#ffffff" font-family="Arial Black, Arial, Helvetica, sans-serif" font-size="22" font-weight="900">ITIL 4</text>
  <rect x="31" y="92" width="88" height="22" rx="4" fill="#5B2A94"/><text x="75" y="107" text-anchor="middle" fill="#ffffff" font-family="Arial, Helvetica, sans-serif" font-size="9" font-weight="900">FOUNDATION</text><circle cx="75" cy="127" r="5" fill="#5B2A94"/>
</svg>